<?xml version="1.0" encoding="UTF-8" standalone="no"?>
<!-- Created with Inkscape (http://www.inkscape.org/) -->

<svg
   xmlns:dc="http://purl.org/dc/elements/1.1/"
   xmlns:cc="http://creativecommons.org/ns#"
   xmlns:rdf="http://www.w3.org/1999/02/22-rdf-syntax-ns#"
   xmlns:svg="http://www.w3.org/2000/svg"
   xmlns="http://www.w3.org/2000/svg"
   xmlns:sodipodi="http://sodipodi.sourceforge.net/DTD/sodipodi-0.dtd"
   xmlns:inkscape="http://www.inkscape.org/namespaces/inkscape"
   width="2000"
   height="1052.3622"
   id="svg2"
   version="1.1"
   inkscape:version="0.48.2 r9819"
   sodipodi:docname="body.svg">
  <defs
     id="defs4" />
  <sodipodi:namedview
     id="base"
     pagecolor="#ffffff"
     bordercolor="#666666"
     borderopacity="1.0"
     inkscape:pageopacity="0.0"
     inkscape:pageshadow="2"
     inkscape:zoom="1.143672"
     inkscape:cx="407.02231"
     inkscape:cy="344.38378"
     inkscape:document-units="px"
     inkscape:current-layer="g4076"
     showgrid="false"
     inkscape:window-width="1920"
     inkscape:window-height="1032"
     inkscape:window-x="0"
     inkscape:window-y="0"
     inkscape:window-maximized="0" />
  <metadata
     id="metadata7">
    <rdf:RDF>
      <cc:Work
         rdf:about="">
        <dc:format>image/svg+xml</dc:format>
        <dc:type
           rdf:resource="http://purl.org/dc/dcmitype/StillImage" />
        <dc:title></dc:title>
      </cc:Work>
    </rdf:RDF>
  </metadata>
  <g
     inkscape:label="Layer 1"
     inkscape:groupmode="layer"
     id="layer1">
    <g
       id="man1"
       inkscape:label="#g3768"
       transform="translate(-86.873119,-155.56349)"
       inkscape:export-xdpi="90"
       inkscape:export-ydpi="90"
       style="fill:#d2d2d2;fill-opacity:1;stroke:none">
      <path
         d="m 245.71429,242.36218 a 32.857143,35.714287 0 1 1 -65.71429,0 32.857143,35.714287 0 1 1 65.71429,0 z"
         sodipodi:ry="35.714287"
         sodipodi:rx="32.857143"
         sodipodi:cy="242.36218"
         sodipodi:cx="212.85715"
         id="path2985"
         style="fill:#d2d2d2;fill-opacity:1;fill-rule:evenodd;stroke:none"
         sodipodi:type="arc"
         transform="matrix(0.8673222,-0.49774713,0.60333523,1.051309,-114.95376,85.937526)" />
      <path
         d="m 268.57143,358.07648 a 58.57143,102.85714 0 1 1 -117.14286,0 58.57143,102.85714 0 1 1 117.14286,0 z"
         sodipodi:ry="102.85714"
         sodipodi:rx="58.57143"
         sodipodi:cy="358.07648"
         sodipodi:cx="210"
         id="path2987"
         style="fill:#d2d2d2;fill-opacity:1;fill-rule:evenodd;stroke:none"
         sodipodi:type="arc"
         transform="matrix(0.77579542,0,0,0.68573031,46.07281,147.88793)" />
      <path
         transform="translate(5.7142857,-25.714286)"
         d="m 197.14286,535.2193 a 22.857143,91.428574 0 1 1 -45.71428,0 22.857143,91.428574 0 1 1 45.71428,0 z"
         sodipodi:ry="91.428574"
         sodipodi:rx="22.857143"
         sodipodi:cy="535.2193"
         sodipodi:cx="174.28572"
         id="path2989"
         style="fill:#d2d2d2;fill-opacity:1;fill-rule:evenodd;stroke:none"
         sodipodi:type="arc" />
      <path
         transform="matrix(0.80545484,-0.59265715,0.59265715,0.80545484,-135.15402,226.24746)"
         d="m 300.00001,369.50504 a 21.428572,71.428574 0 1 1 -42.85714,0 21.428572,71.428574 0 1 1 42.85714,0 z"
         sodipodi:ry="71.428574"
         sodipodi:rx="21.428572"
         sodipodi:cy="369.50504"
         sodipodi:cx="278.57144"
         id="path2996"
         style="fill:#d2d2d2;fill-opacity:1;fill-rule:evenodd;stroke:none"
         sodipodi:type="arc" />
      <path
         transform="matrix(0.83180269,-0.55507142,0.55507142,0.83180269,-126.53326,89.518194)"
         d="m 168.57143,332.36218 a 37.142857,20 0 1 1 -74.285713,0 37.142857,20 0 1 1 74.285713,0 z"
         sodipodi:ry="20"
         sodipodi:rx="37.142857"
         sodipodi:cy="332.36218"
         sodipodi:cx="131.42857"
         id="path2998"
         style="fill:#d2d2d2;fill-opacity:1;fill-rule:evenodd;stroke:none"
         sodipodi:type="arc" />
      <path
         sodipodi:type="arc"
         style="fill:#d2d2d2;fill-opacity:1;fill-rule:evenodd;stroke:none"
         id="path3112"
         sodipodi:cx="131.42857"
         sodipodi:cy="332.36218"
         sodipodi:rx="37.142857"
         sodipodi:ry="20"
         d="m 168.57143,332.36218 a 37.142857,20 0 1 1 -74.285713,0 37.142857,20 0 1 1 74.285713,0 z"
         transform="matrix(0.64371632,0.7652642,-0.7652642,0.64371632,432.98078,-14.42777)"
         inkscape:transform-center-x="-7.0710678"
         inkscape:transform-center-y="-31.211469" />
      <path
         sodipodi:type="arc"
         style="fill:#d2d2d2;fill-opacity:1;fill-rule:evenodd;stroke:none"
         id="path3114"
         sodipodi:cx="278.57144"
         sodipodi:cy="369.50504"
         sodipodi:rx="21.428572"
         sodipodi:ry="71.428574"
         d="m 300.00001,369.50504 a 21.428572,71.428574 0 1 1 -42.85714,0 21.428572,71.428574 0 1 1 42.85714,0 z"
         transform="matrix(0.99503004,0.09957514,-0.09957514,0.99503004,-99.866267,-24.51585)" />
      <path
         sodipodi:type="arc"
         style="fill:#d2d2d2;fill-opacity:1;fill-rule:evenodd;stroke:none"
         id="path3116"
         sodipodi:cx="131.42857"
         sodipodi:cy="332.36218"
         sodipodi:rx="37.142857"
         sodipodi:ry="20"
         d="m 168.57143,332.36218 a 37.142857,20 0 1 1 -74.285713,0 37.142857,20 0 1 1 74.285713,0 z"
         transform="matrix(0.83180269,-0.55507142,0.55507142,0.83180269,-129.56372,400.64518)" />
      <path
         inkscape:transform-center-y="-31.211469"
         inkscape:transform-center-x="-7.0710678"
         transform="matrix(0.64371632,0.7652642,-0.7652642,0.64371632,422.87925,285.58753)"
         d="m 168.57143,332.36218 a 37.142857,20 0 1 1 -74.285713,0 37.142857,20 0 1 1 74.285713,0 z"
         sodipodi:ry="20"
         sodipodi:rx="37.142857"
         sodipodi:cy="332.36218"
         sodipodi:cx="131.42857"
         id="path3118"
         style="fill:#d2d2d2;fill-opacity:1;fill-rule:evenodd;stroke:none"
         sodipodi:type="arc" />
      <path
         sodipodi:type="arc"
         style="fill:#d2d2d2;fill-opacity:1;fill-rule:evenodd;stroke:none"
         id="path3120"
         sodipodi:cx="174.28572"
         sodipodi:cy="535.2193"
         sodipodi:rx="22.857143"
         sodipodi:ry="91.428574"
         d="m 197.14286,535.2193 a 22.857143,91.428574 0 1 1 -45.71428,0 22.857143,91.428574 0 1 1 45.71428,0 z"
         transform="translate(65.313286,-21.673676)" />
      <path
         transform="matrix(1,0,0,0.68573031,1.0101526,80.207707)"
         sodipodi:type="arc"
         style="fill:#d2d2d2;fill-opacity:1;fill-rule:evenodd;stroke:none"
         id="path3122"
         sodipodi:cx="210"
         sodipodi:cy="358.07648"
         sodipodi:rx="58.57143"
         sodipodi:ry="102.85714"
         d="m 268.57143,358.07648 a 58.57143,102.85714 0 1 1 -117.14286,0 58.57143,102.85714 0 1 1 117.14286,0 z" />
    </g>
    <g
       inkscape:label="#g3768"
       id="man2"
       transform="translate(172.73609,-153.54319)"
       inkscape:export-xdpi="90"
       inkscape:export-ydpi="90"
       style="fill:#d2d2d2;fill-opacity:1;stroke:none">
      <path
         transform="matrix(0.8673222,-0.49774713,0.60333523,1.051309,-114.95376,85.937526)"
         sodipodi:type="arc"
         style="fill:#d2d2d2;fill-opacity:1;fill-rule:evenodd;stroke:none"
         id="path3126"
         sodipodi:cx="212.85715"
         sodipodi:cy="242.36218"
         sodipodi:rx="32.857143"
         sodipodi:ry="35.714287"
         d="m 245.71429,242.36218 a 32.857143,35.714287 0 1 1 -65.71429,0 32.857143,35.714287 0 1 1 65.71429,0 z" />
      <path
         transform="matrix(0.77579542,0,0,0.68573031,46.07281,147.88793)"
         sodipodi:type="arc"
         style="fill:#d2d2d2;fill-opacity:1;fill-rule:evenodd;stroke:none"
         id="path3128"
         sodipodi:cx="210"
         sodipodi:cy="358.07648"
         sodipodi:rx="58.57143"
         sodipodi:ry="102.85714"
         d="m 268.57143,358.07648 a 58.57143,102.85714 0 1 1 -117.14286,0 58.57143,102.85714 0 1 1 117.14286,0 z" />
      <path
         sodipodi:type="arc"
         style="fill:#d2d2d2;fill-opacity:1;fill-rule:evenodd;stroke:none"
         id="path3130"
         sodipodi:cx="174.28572"
         sodipodi:cy="535.2193"
         sodipodi:rx="22.857143"
         sodipodi:ry="91.428574"
         d="m 197.14286,535.2193 a 22.857143,91.428574 0 1 1 -45.71428,0 22.857143,91.428574 0 1 1 45.71428,0 z"
         transform="translate(5.7142857,-25.714286)" />
      <path
         sodipodi:type="arc"
         style="fill:#d2d2d2;fill-opacity:1;fill-rule:evenodd;stroke:none"
         id="path3132"
         sodipodi:cx="278.57144"
         sodipodi:cy="369.50504"
         sodipodi:rx="21.428572"
         sodipodi:ry="71.428574"
         d="m 300.00001,369.50504 a 21.428572,71.428574 0 1 1 -42.85714,0 21.428572,71.428574 0 1 1 42.85714,0 z"
         transform="matrix(0.98641802,0.16425433,-0.16425433,0.98641802,56.741766,-31.270218)" />
      <path
         sodipodi:type="arc"
         style="fill:#d2d2d2;fill-opacity:1;fill-rule:evenodd;stroke:none"
         id="path3134"
         sodipodi:cx="131.42857"
         sodipodi:cy="332.36218"
         sodipodi:rx="37.142857"
         sodipodi:ry="20"
         d="m 168.57143,332.36218 a 37.142857,20 0 1 1 -74.285713,0 37.142857,20 0 1 1 74.285713,0 z"
         transform="matrix(0.83180269,-0.55507142,0.55507142,0.83180269,-126.53326,89.518194)" />
      <path
         inkscape:transform-center-y="-31.211469"
         inkscape:transform-center-x="-7.0710678"
         transform="matrix(0.64371632,0.7652642,-0.7652642,0.64371632,432.98078,-14.42777)"
         d="m 168.57143,332.36218 a 37.142857,20 0 1 1 -74.285713,0 37.142857,20 0 1 1 74.285713,0 z"
         sodipodi:ry="20"
         sodipodi:rx="37.142857"
         sodipodi:cy="332.36218"
         sodipodi:cx="131.42857"
         id="path3136"
         style="fill:#d2d2d2;fill-opacity:1;fill-rule:evenodd;stroke:none"
         sodipodi:type="arc" />
      <path
         transform="matrix(0.93349383,-0.35859344,0.35859344,0.93349383,-232.82673,129.89538)"
         d="m 300.00001,369.50504 a 21.428572,71.428574 0 1 1 -42.85714,0 21.428572,71.428574 0 1 1 42.85714,0 z"
         sodipodi:ry="71.428574"
         sodipodi:rx="21.428572"
         sodipodi:cy="369.50504"
         sodipodi:cx="278.57144"
         id="path3138"
         style="fill:#d2d2d2;fill-opacity:1;fill-rule:evenodd;stroke:none"
         sodipodi:type="arc" />
      <path
         transform="matrix(-0.82933994,-0.55507142,-0.553428,0.83180269,552.21579,399.63503)"
         d="m 168.57143,332.36218 a 37.142857,20 0 1 1 -74.285713,0 37.142857,20 0 1 1 74.285713,0 z"
         sodipodi:ry="20"
         sodipodi:rx="37.142857"
         sodipodi:cy="332.36218"
         sodipodi:cx="131.42857"
         id="path3140"
         style="fill:#d2d2d2;fill-opacity:1;fill-rule:evenodd;stroke:none"
         sodipodi:type="arc" />
      <path
         sodipodi:type="arc"
         style="fill:#d2d2d2;fill-opacity:1;fill-rule:evenodd;stroke:none"
         id="path3142"
         sodipodi:cx="131.42857"
         sodipodi:cy="332.36218"
         sodipodi:rx="37.142857"
         sodipodi:ry="20"
         d="m 168.57143,332.36218 a 37.142857,20 0 1 1 -74.285713,0 37.142857,20 0 1 1 74.285713,0 z"
         transform="matrix(0.50577068,0.86266797,-0.86266797,0.50577068,411.86349,326.32956)"
         inkscape:transform-center-x="-12.22205"
         inkscape:transform-center-y="-29.576634" />
      <path
         transform="translate(65.313286,-21.673676)"
         d="m 197.14286,535.2193 a 22.857143,91.428574 0 1 1 -45.71428,0 22.857143,91.428574 0 1 1 45.71428,0 z"
         sodipodi:ry="91.428574"
         sodipodi:rx="22.857143"
         sodipodi:cy="535.2193"
         sodipodi:cx="174.28572"
         id="path3144"
         style="fill:#d2d2d2;fill-opacity:1;fill-rule:evenodd;stroke:none"
         sodipodi:type="arc" />
      <path
         d="m 268.57143,358.07648 a 58.57143,102.85714 0 1 1 -117.14286,0 58.57143,102.85714 0 1 1 117.14286,0 z"
         sodipodi:ry="102.85714"
         sodipodi:rx="58.57143"
         sodipodi:cy="358.07648"
         sodipodi:cx="210"
         id="path3146"
         style="fill:#d2d2d2;fill-opacity:1;fill-rule:evenodd;stroke:none"
         sodipodi:type="arc"
         transform="matrix(1,0,0,0.68573031,1.0101526,80.207707)" />
    </g>
    <g
       transform="translate(388.90873,-159.60411)"
       id="man3"
       inkscape:label="#g3768"
       inkscape:export-xdpi="90"
       inkscape:export-ydpi="90"
       style="fill:#d2d2d2;fill-opacity:1;stroke:none">
      <path
         d="m 245.71429,242.36218 a 32.857143,35.714287 0 1 1 -65.71429,0 32.857143,35.714287 0 1 1 65.71429,0 z"
         sodipodi:ry="35.714287"
         sodipodi:rx="32.857143"
         sodipodi:cy="242.36218"
         sodipodi:cx="212.85715"
         id="path3150"
         style="fill:#d2d2d2;fill-opacity:1;fill-rule:evenodd;stroke:none"
         sodipodi:type="arc"
         transform="matrix(0.8673222,-0.49774713,0.60333523,1.051309,-108.89284,89.978136)" />
      <path
         d="m 268.57143,358.07648 a 58.57143,102.85714 0 1 1 -117.14286,0 58.57143,102.85714 0 1 1 117.14286,0 z"
         sodipodi:ry="102.85714"
         sodipodi:rx="58.57143"
         sodipodi:cy="358.07648"
         sodipodi:cx="210"
         id="path3152"
         style="fill:#d2d2d2;fill-opacity:1;fill-rule:evenodd;stroke:none"
         sodipodi:type="arc"
         transform="matrix(0.77579542,0,0,0.68573031,46.07281,147.88793)" />
      <path
         transform="translate(5.7142857,-25.714286)"
         d="m 197.14286,535.2193 a 22.857143,91.428574 0 1 1 -45.71428,0 22.857143,91.428574 0 1 1 45.71428,0 z"
         sodipodi:ry="91.428574"
         sodipodi:rx="22.857143"
         sodipodi:cy="535.2193"
         sodipodi:cx="174.28572"
         id="path3154"
         style="fill:#d2d2d2;fill-opacity:1;fill-rule:evenodd;stroke:none"
         sodipodi:type="arc" />
      <path
         transform="matrix(-0.68595061,-0.7276481,0.7276481,-0.68595061,248.61186,740.18262)"
         d="m 300.00001,369.50504 a 21.428572,71.428574 0 1 1 -42.85714,0 21.428572,71.428574 0 1 1 42.85714,0 z"
         sodipodi:ry="71.428574"
         sodipodi:rx="21.428572"
         sodipodi:cy="369.50504"
         sodipodi:cx="278.57144"
         id="path3156"
         style="fill:#d2d2d2;fill-opacity:1;fill-rule:evenodd;stroke:none"
         sodipodi:type="arc" />
      <path
         transform="matrix(0.83180269,-0.55507142,0.55507142,0.83180269,-126.53326,89.518194)"
         d="m 168.57143,332.36218 a 37.142857,20 0 1 1 -74.285713,0 37.142857,20 0 1 1 74.285713,0 z"
         sodipodi:ry="20"
         sodipodi:rx="37.142857"
         sodipodi:cy="332.36218"
         sodipodi:cx="131.42857"
         id="path3158"
         style="fill:#d2d2d2;fill-opacity:1;fill-rule:evenodd;stroke:none"
         sodipodi:type="arc" />
      <path
         sodipodi:type="arc"
         style="fill:#d2d2d2;fill-opacity:1;fill-rule:evenodd;stroke:none"
         id="path3160"
         sodipodi:cx="131.42857"
         sodipodi:cy="332.36218"
         sodipodi:rx="37.142857"
         sodipodi:ry="20"
         d="m 168.57143,332.36218 a 37.142857,20 0 1 1 -74.285713,0 37.142857,20 0 1 1 74.285713,0 z"
         transform="matrix(0.64371632,0.7652642,-0.7652642,0.64371632,432.98078,-14.42777)"
         inkscape:transform-center-x="-7.0710678"
         inkscape:transform-center-y="-31.211469" />
      <path
         sodipodi:type="arc"
         style="fill:#d2d2d2;fill-opacity:1;fill-rule:evenodd;stroke:none"
         id="path3162"
         sodipodi:cx="278.57144"
         sodipodi:cy="369.50504"
         sodipodi:rx="21.428572"
         sodipodi:ry="71.428574"
         d="m 300.00001,369.50504 a 21.428572,71.428574 0 1 1 -42.85714,0 21.428572,71.428574 0 1 1 42.85714,0 z"
         transform="matrix(0.99420386,0.10751124,-0.10751124,0.99420386,-99.734145,-18.340125)" />
      <path
         sodipodi:type="arc"
         style="fill:#d2d2d2;fill-opacity:1;fill-rule:evenodd;stroke:none"
         id="path3164"
         sodipodi:cx="131.42857"
         sodipodi:cy="332.36218"
         sodipodi:rx="37.142857"
         sodipodi:ry="20"
         d="m 168.57143,332.36218 a 37.142857,20 0 1 1 -74.285713,0 37.142857,20 0 1 1 74.285713,0 z"
         transform="matrix(-0.82933994,-0.55507142,-0.553428,0.83180269,552.21579,399.63503)" />
      <path
         inkscape:transform-center-y="-26.470098"
         inkscape:transform-center-x="-17.985806"
         transform="matrix(0.31961076,0.94754893,-0.94754893,0.31961076,456.16306,379.14268)"
         d="m 168.57143,332.36218 a 37.142857,20 0 1 1 -74.285713,0 37.142857,20 0 1 1 74.285713,0 z"
         sodipodi:ry="20"
         sodipodi:rx="37.142857"
         sodipodi:cy="332.36218"
         sodipodi:cx="131.42857"
         id="path3166"
         style="fill:#d2d2d2;fill-opacity:1;fill-rule:evenodd;stroke:none"
         sodipodi:type="arc" />
      <path
         sodipodi:type="arc"
         style="fill:#d2d2d2;fill-opacity:1;fill-rule:evenodd;stroke:none"
         id="path3168"
         sodipodi:cx="174.28572"
         sodipodi:cy="535.2193"
         sodipodi:rx="22.857143"
         sodipodi:ry="91.428574"
         d="m 197.14286,535.2193 a 22.857143,91.428574 0 1 1 -45.71428,0 22.857143,91.428574 0 1 1 45.71428,0 z"
         transform="translate(65.313286,-21.673676)" />
      <path
         transform="matrix(1,0,0,0.68573031,2.0203051,79.197554)"
         sodipodi:type="arc"
         style="fill:#d2d2d2;fill-opacity:1;fill-rule:evenodd;stroke:none"
         id="path3170"
         sodipodi:cx="210"
         sodipodi:cy="358.07648"
         sodipodi:rx="58.57143"
         sodipodi:ry="102.85714"
         d="m 268.57143,358.07648 a 58.57143,102.85714 0 1 1 -117.14286,0 58.57143,102.85714 0 1 1 117.14286,0 z" />
    </g>
    <g
       style="fill:#d2d2d2;fill-opacity:1;stroke:none"
       inkscape:export-ydpi="90"
       inkscape:export-xdpi="90"
       transform="matrix(0.44525088,0.89540586,-0.89540586,0.44525088,546.80345,405.464)"
       inkscape:label="#g3768"
       id="body1">
      <path
         transform="matrix(0.92490932,0.38018779,-0.46083779,1.1211122,141.55766,-112.45759)"
         sodipodi:type="arc"
         style="fill:#d2d2d2;fill-opacity:1;fill-rule:evenodd;stroke:none"
         id="path3942"
         sodipodi:cx="212.85715"
         sodipodi:cy="242.36218"
         sodipodi:rx="32.857143"
         sodipodi:ry="35.714287"
         d="m 245.71429,242.36218 a 32.857143,35.714287 0 1 1 -65.71429,0 32.857143,35.714287 0 1 1 65.71429,0 z" />
      <path
         transform="matrix(0.77579542,0,0,0.68573031,46.07281,147.88793)"
         sodipodi:type="arc"
         style="fill:#d2d2d2;fill-opacity:1;fill-rule:evenodd;stroke:none"
         id="path3944"
         sodipodi:cx="210"
         sodipodi:cy="358.07648"
         sodipodi:rx="58.57143"
         sodipodi:ry="102.85714"
         d="m 268.57143,358.07648 a 58.57143,102.85714 0 1 1 -117.14286,0 58.57143,102.85714 0 1 1 117.14286,0 z" />
      <path
         sodipodi:type="arc"
         style="fill:#d2d2d2;fill-opacity:1;fill-rule:evenodd;stroke:none"
         id="path3946"
         sodipodi:cx="174.28572"
         sodipodi:cy="535.2193"
         sodipodi:rx="22.857143"
         sodipodi:ry="91.428574"
         d="m 197.14286,535.2193 a 22.857143,91.428574 0 1 1 -45.71428,0 22.857143,91.428574 0 1 1 45.71428,0 z"
         transform="translate(5.7142857,-25.714286)" />
      <path
         sodipodi:type="arc"
         style="fill:#d2d2d2;fill-opacity:1;fill-rule:evenodd;stroke:none"
         id="path3948"
         sodipodi:cx="278.57144"
         sodipodi:cy="369.50504"
         sodipodi:rx="21.428572"
         sodipodi:ry="71.428574"
         d="m 300.00001,369.50504 a 21.428572,71.428574 0 1 1 -42.85714,0 21.428572,71.428574 0 1 1 42.85714,0 z"
         transform="matrix(0.98122833,-0.19284956,0.19284956,0.98122833,-46.74818,63.950419)" />
      <path
         sodipodi:type="arc"
         style="fill:#d2d2d2;fill-opacity:1;fill-rule:evenodd;stroke:none"
         id="path3950"
         sodipodi:cx="131.42857"
         sodipodi:cy="332.36218"
         sodipodi:rx="37.142857"
         sodipodi:ry="20"
         d="m 168.57143,332.36218 a 37.142857,20 0 1 1 -74.285713,0 37.142857,20 0 1 1 74.285713,0 z"
         transform="matrix(0.83180269,-0.55507142,0.55507142,0.83180269,-126.53326,89.518194)" />
      <path
         inkscape:transform-center-y="-31.211469"
         inkscape:transform-center-x="-7.0710678"
         transform="matrix(0.64371632,0.7652642,-0.7652642,0.64371632,440.65662,-16.251625)"
         d="m 168.57143,332.36218 a 37.142857,20 0 1 1 -74.285713,0 37.142857,20 0 1 1 74.285713,0 z"
         sodipodi:ry="20"
         sodipodi:rx="37.142857"
         sodipodi:cy="332.36218"
         sodipodi:cx="131.42857"
         id="path3952"
         style="fill:#d2d2d2;fill-opacity:1;fill-rule:evenodd;stroke:none"
         sodipodi:type="arc" />
      <path
         transform="matrix(0.99503004,0.09957514,-0.09957514,0.99503004,-99.866267,-24.51585)"
         d="m 300.00001,369.50504 a 21.428572,71.428574 0 1 1 -42.85714,0 21.428572,71.428574 0 1 1 42.85714,0 z"
         sodipodi:ry="71.428574"
         sodipodi:rx="21.428572"
         sodipodi:cy="369.50504"
         sodipodi:cx="278.57144"
         id="path3954"
         style="fill:#d2d2d2;fill-opacity:1;fill-rule:evenodd;stroke:none"
         sodipodi:type="arc" />
      <path
         transform="matrix(0.83180269,-0.55507142,0.55507142,0.83180269,-129.56372,400.64518)"
         d="m 168.57143,332.36218 a 37.142857,20 0 1 1 -74.285713,0 37.142857,20 0 1 1 74.285713,0 z"
         sodipodi:ry="20"
         sodipodi:rx="37.142857"
         sodipodi:cy="332.36218"
         sodipodi:cx="131.42857"
         id="path3956"
         style="fill:#d2d2d2;fill-opacity:1;fill-rule:evenodd;stroke:none"
         sodipodi:type="arc" />
      <path
         sodipodi:type="arc"
         style="fill:#d2d2d2;fill-opacity:1;fill-rule:evenodd;stroke:none"
         id="path3958"
         sodipodi:cx="131.42857"
         sodipodi:cy="332.36218"
         sodipodi:rx="37.142857"
         sodipodi:ry="20"
         d="m 168.57143,332.36218 a 37.142857,20 0 1 1 -74.285713,0 37.142857,20 0 1 1 74.285713,0 z"
         transform="matrix(-0.38363602,0.92348439,-0.92348439,-0.38363602,601.68668,614.66554)"
         inkscape:transform-center-x="-30.968157"
         inkscape:transform-center-y="-8.0702649" />
      <path
         transform="matrix(0.99281148,-0.11968864,0.11968864,0.99281148,10.187262,3.4686906)"
         d="m 197.14286,535.2193 a 22.857143,91.428574 0 1 1 -45.71428,0 22.857143,91.428574 0 1 1 45.71428,0 z"
         sodipodi:ry="91.428574"
         sodipodi:rx="22.857143"
         sodipodi:cy="535.2193"
         sodipodi:cx="174.28572"
         id="path3960"
         style="fill:#d2d2d2;fill-opacity:1;fill-rule:evenodd;stroke:none"
         sodipodi:type="arc" />
      <path
         d="m 268.57143,358.07648 a 58.57143,102.85714 0 1 1 -117.14286,0 58.57143,102.85714 0 1 1 117.14286,0 z"
         sodipodi:ry="102.85714"
         sodipodi:rx="58.57143"
         sodipodi:cy="358.07648"
         sodipodi:cx="210"
         id="path3962"
         style="fill:#d2d2d2;fill-opacity:1;fill-rule:evenodd;stroke:none"
         sodipodi:type="arc"
         transform="matrix(1,0,0,0.68573031,1.0101526,80.207707)" />
    </g>
    <g
       id="blood1"
       inkscape:label="#g3992"
       inkscape:export-xdpi="90"
       inkscape:export-ydpi="90">
      <path
         d="m 622.14283,749.50507 a 36.785713,13.571428 0 1 1 -73.57143,0 36.785713,13.571428 0 1 1 73.57143,0 z"
         sodipodi:ry="13.571428"
         sodipodi:rx="36.785713"
         sodipodi:cy="749.50507"
         sodipodi:cx="585.35712"
         id="path3964"
         style="fill:#d2001f;fill-opacity:1;stroke:none"
         sodipodi:type="arc" />
      <path
         transform="translate(-60.714286,-2.8571429)"
         d="m 622.14288,765.93359 a 17.5,8.5714283 0 1 1 -35,0 17.5,8.5714283 0 1 1 35,0 z"
         sodipodi:ry="8.5714283"
         sodipodi:rx="17.5"
         sodipodi:cy="765.93359"
         sodipodi:cx="604.64288"
         id="path3966"
         style="fill:#d2001f;fill-opacity:1;stroke:none"
         sodipodi:type="arc" />
      <path
         d="m 575.71428,755.93359 a 20.714285,10.714286 0 1 1 -41.42856,0 20.714285,10.714286 0 1 1 41.42856,0 z"
         sodipodi:ry="10.714286"
         sodipodi:rx="20.714285"
         sodipodi:cy="755.93359"
         sodipodi:cx="555"
         id="path3968"
         style="fill:#d2001f;fill-opacity:1;stroke:none"
         sodipodi:type="arc" />
      <path
         d="m 586.42856,736.29077 a 17.142857,7.5 0 1 1 -34.28571,0 17.142857,7.5 0 1 1 34.28571,0 z"
         sodipodi:ry="7.5"
         sodipodi:rx="17.142857"
         sodipodi:cy="736.29077"
         sodipodi:cx="569.28571"
         id="path3970"
         style="fill:#d2001f;fill-opacity:1;stroke:none"
         sodipodi:type="arc" />
      <path
         d="m 585.7143,730.2193 a 6.7857141,5 0 1 1 -13.57143,0 6.7857141,5 0 1 1 13.57143,0 z"
         sodipodi:ry="5"
         sodipodi:rx="6.7857141"
         sodipodi:cy="730.2193"
         sodipodi:cx="578.92859"
         id="path3972"
         style="fill:#d2001f;fill-opacity:1;stroke:none"
         sodipodi:type="arc" />
      <path
         d="m 575.71429,725.93359 a 13.214286,7.1428571 0 1 1 -26.42858,0 13.214286,7.1428571 0 1 1 26.42858,0 z"
         sodipodi:ry="7.1428571"
         sodipodi:rx="13.214286"
         sodipodi:cy="725.93359"
         sodipodi:cx="562.5"
         id="path3974"
         style="fill:#d2001f;fill-opacity:1;stroke:none"
         sodipodi:type="arc" />
      <path
         d="m 588.57144,761.29077 a 22.857143,5.3571429 0 1 1 -45.71429,0 22.857143,5.3571429 0 1 1 45.71429,0 z"
         sodipodi:ry="5.3571429"
         sodipodi:rx="22.857143"
         sodipodi:cy="761.29077"
         sodipodi:cx="565.71429"
         id="path3976"
         style="fill:#d2001f;fill-opacity:1;stroke:none"
         sodipodi:type="arc" />
      <path
         d="m 575.00002,765.2193 a 21.071428,6.4285712 0 1 1 -42.14286,0 21.071428,6.4285712 0 1 1 42.14286,0 z"
         sodipodi:ry="6.4285712"
         sodipodi:rx="21.071428"
         sodipodi:cy="765.2193"
         sodipodi:cx="553.92859"
         id="path3978"
         style="fill:#d2001f;fill-opacity:1;stroke:none"
         sodipodi:type="arc" />
      <path
         d="m 628.57141,745.2193 a 12.5,7.1428571 0 1 1 -25,0 12.5,7.1428571 0 1 1 25,0 z"
         sodipodi:ry="7.1428571"
         sodipodi:rx="12.5"
         sodipodi:cy="745.2193"
         sodipodi:cx="616.07141"
         id="path3980"
         style="fill:#d2001f;fill-opacity:1;stroke:none"
         sodipodi:type="arc" />
      <path
         transform="translate(-12.142857,-1.4285714)"
         d="m 637.14285,738.07648 a 20.357143,7.1428571 0 1 1 -40.71429,0 20.357143,7.1428571 0 1 1 40.71429,0 z"
         sodipodi:ry="7.1428571"
         sodipodi:rx="20.357143"
         sodipodi:cy="738.07648"
         sodipodi:cx="616.78571"
         id="path3982"
         style="fill:#d2001f;fill-opacity:1;stroke:none"
         sodipodi:type="arc" />
      <path
         transform="translate(-26.428571,8.5714286)"
         d="m 596.42854,762.7193 a 11.071428,4.6428571 0 1 1 -22.14285,0 11.071428,4.6428571 0 1 1 22.14285,0 z"
         sodipodi:ry="4.6428571"
         sodipodi:rx="11.071428"
         sodipodi:cy="762.7193"
         sodipodi:cx="585.35712"
         id="path3984"
         style="fill:#d2001f;fill-opacity:1;stroke:none"
         sodipodi:type="arc" />
      <path
         transform="translate(0,-7.8571429)"
         d="m 627.85715,755.93359 a 9.6428576,5 0 1 1 -19.28571,0 9.6428576,5 0 1 1 19.28571,0 z"
         sodipodi:ry="5"
         sodipodi:rx="9.6428576"
         sodipodi:cy="755.93359"
         sodipodi:cx="618.21429"
         id="path3986"
         style="fill:#d2001f;fill-opacity:1;stroke:none"
         sodipodi:type="arc" />
      <path
         d="m 562.14284,744.14789 a 11.071428,6.7857141 0 1 1 -22.14286,0 11.071428,6.7857141 0 1 1 22.14286,0 z"
         sodipodi:ry="6.7857141"
         sodipodi:rx="11.071428"
         sodipodi:cy="744.14789"
         sodipodi:cx="551.07141"
         id="path3988"
         style="fill:#d2001f;fill-opacity:1;stroke:none"
         sodipodi:type="arc" />
      <path
         d="m 598.57141,735.57648 a 10,5.3571429 0 1 1 -20,0 10,5.3571429 0 1 1 20,0 z"
         sodipodi:ry="5.3571429"
         sodipodi:rx="10"
         sodipodi:cy="735.57648"
         sodipodi:cx="588.57141"
         id="path3990"
         style="fill:#d2001f;fill-opacity:1;stroke:none"
         sodipodi:type="arc" />
    </g>
    <g
       inkscape:export-ydpi="90"
       inkscape:export-xdpi="90"
       inkscape:label="#g3992"
       id="eyes1"
       transform="translate(67.142857,-72.857143)"
       inkscape:export-filename="/Users/markku/Data/repository/ludumdare/nightbyday/resources/svg/g4008.png">
      <path
         sodipodi:type="arc"
         style="fill:#d2001f;fill-opacity:1;stroke:none"
         id="path4010"
         sodipodi:cx="585.35712"
         sodipodi:cy="749.50507"
         sodipodi:rx="36.785713"
         sodipodi:ry="13.571428"
         d="m 622.14283,749.50507 a 36.785713,13.571428 0 1 1 -73.57143,0 36.785713,13.571428 0 1 1 73.57143,0 z" />
      <path
         sodipodi:type="arc"
         style="fill:#d2001f;fill-opacity:1;stroke:none"
         id="path4012"
         sodipodi:cx="604.64288"
         sodipodi:cy="765.93359"
         sodipodi:rx="17.5"
         sodipodi:ry="8.5714283"
         d="m 622.14288,765.93359 a 17.5,8.5714283 0 1 1 -35,0 17.5,8.5714283 0 1 1 35,0 z"
         transform="translate(-56.926214,-15.736588)" />
      <path
         sodipodi:type="arc"
         style="fill:#d2001f;fill-opacity:1;stroke:none"
         id="path4016"
         sodipodi:cx="569.28571"
         sodipodi:cy="736.29077"
         sodipodi:rx="17.142857"
         sodipodi:ry="7.5"
         d="m 586.42856,736.29077 a 17.142857,7.5 0 1 1 -34.28571,0 17.142857,7.5 0 1 1 34.28571,0 z" />
      <path
         sodipodi:type="arc"
         style="fill:#d2001f;fill-opacity:1;stroke:none"
         id="path4018"
         sodipodi:cx="578.92859"
         sodipodi:cy="730.2193"
         sodipodi:rx="6.7857141"
         sodipodi:ry="5"
         d="m 585.7143,730.2193 a 6.7857141,5 0 1 1 -13.57143,0 6.7857141,5 0 1 1 13.57143,0 z" />
      <path
         sodipodi:type="arc"
         style="fill:#d2001f;fill-opacity:1;stroke:none"
         id="path4022"
         sodipodi:cx="565.71429"
         sodipodi:cy="761.29077"
         sodipodi:rx="22.857143"
         sodipodi:ry="5.3571429"
         d="m 588.57144,761.29077 a 22.857143,5.3571429 0 1 1 -45.71429,0 22.857143,5.3571429 0 1 1 45.71429,0 z"
         transform="translate(1.2626907,-2.2728432)" />
      <path
         sodipodi:type="arc"
         style="fill:#d2001f;fill-opacity:1;stroke:none"
         id="path4024"
         sodipodi:cx="553.92859"
         sodipodi:cy="765.2193"
         sodipodi:rx="21.071428"
         sodipodi:ry="6.4285712"
         d="m 575.00002,765.2193 a 21.071428,6.4285712 0 1 1 -42.14286,0 21.071428,6.4285712 0 1 1 42.14286,0 z"
         transform="translate(-12.626907,-23.233509)" />
      <path
         sodipodi:type="arc"
         style="fill:#d2001f;fill-opacity:1;stroke:none"
         id="path4026"
         sodipodi:cx="616.07141"
         sodipodi:cy="745.2193"
         sodipodi:rx="12.5"
         sodipodi:ry="7.1428571"
         d="m 628.57141,745.2193 a 12.5,7.1428571 0 1 1 -25,0 12.5,7.1428571 0 1 1 25,0 z" />
      <path
         sodipodi:type="arc"
         style="fill:#d2001f;fill-opacity:1;stroke:none"
         id="path4028"
         sodipodi:cx="616.78571"
         sodipodi:cy="738.07648"
         sodipodi:rx="20.357143"
         sodipodi:ry="7.1428571"
         d="m 637.14285,738.07648 a 20.357143,7.1428571 0 1 1 -40.71429,0 20.357143,7.1428571 0 1 1 40.71429,0 z"
         transform="translate(-12.142857,-1.4285714)" />
      <path
         sodipodi:type="arc"
         style="fill:#d2001f;fill-opacity:1;stroke:none"
         id="path4030"
         sodipodi:cx="585.35712"
         sodipodi:cy="762.7193"
         sodipodi:rx="11.071428"
         sodipodi:ry="4.6428571"
         d="m 596.42854,762.7193 a 11.071428,4.6428571 0 1 1 -22.14285,0 11.071428,4.6428571 0 1 1 22.14285,0 z"
         transform="translate(-49.914618,-15.672233)" />
      <path
         sodipodi:type="arc"
         style="fill:#d2001f;fill-opacity:1;stroke:none"
         id="path4032"
         sodipodi:cx="618.21429"
         sodipodi:cy="755.93359"
         sodipodi:rx="9.6428576"
         sodipodi:ry="5"
         d="m 627.85715,755.93359 a 9.6428576,5 0 1 1 -19.28571,0 9.6428576,5 0 1 1 19.28571,0 z"
         transform="translate(0,-7.8571429)" />
      <path
         sodipodi:type="arc"
         style="fill:#d2001f;fill-opacity:1;stroke:none"
         id="path4034"
         sodipodi:cx="551.07141"
         sodipodi:cy="744.14789"
         sodipodi:rx="11.071428"
         sodipodi:ry="6.7857141"
         d="m 562.14284,744.14789 a 11.071428,6.7857141 0 1 1 -22.14286,0 11.071428,6.7857141 0 1 1 22.14286,0 z" />
      <path
         sodipodi:type="arc"
         style="fill:#d2001f;fill-opacity:1;stroke:none"
         id="path4036"
         sodipodi:cx="588.57141"
         sodipodi:cy="735.57648"
         sodipodi:rx="10"
         sodipodi:ry="5.3571429"
         d="m 598.57141,735.57648 a 10,5.3571429 0 1 1 -20,0 10,5.3571429 0 1 1 20,0 z" />
      <g
         id="g4040">
        <path
           transform="matrix(0.6751131,0,0,1,193.22422,15.880166)"
           d="m 575.71429,725.93359 a 13.214286,7.1428571 0 1 1 -26.42858,0 13.214286,7.1428571 0 1 1 26.42858,0 z"
           sodipodi:ry="7.1428571"
           sodipodi:rx="13.214286"
           sodipodi:cy="725.93359"
           sodipodi:cx="562.5"
           id="path4020"
           style="fill:#ffffff;fill-opacity:1;stroke:none"
           sodipodi:type="arc" />
        <path
           sodipodi:type="arc"
           style="fill:#000600;fill-opacity:1;stroke:none"
           id="path4038"
           sodipodi:cx="562.5"
           sodipodi:cy="725.93359"
           sodipodi:rx="13.214286"
           sodipodi:ry="7.1428571"
           d="m 575.71429,725.93359 a 13.214286,7.1428571 0 1 1 -26.42858,0 13.214286,7.1428571 0 1 1 26.42858,0 z"
           transform="matrix(0.26422673,0,0,0.45199224,426.99945,417.61175)" />
      </g>
      <g
         id="g4044"
         transform="matrix(0.92475208,-0.38057008,0.38057008,0.92475208,-218.23625,273.87721)">
        <path
           sodipodi:type="arc"
           style="fill:#ffffff;fill-opacity:1;stroke:none"
           id="path4046"
           sodipodi:cx="562.5"
           sodipodi:cy="725.93359"
           sodipodi:rx="13.214286"
           sodipodi:ry="7.1428571"
           d="m 575.71429,725.93359 a 13.214286,7.1428571 0 1 1 -26.42858,0 13.214286,7.1428571 0 1 1 26.42858,0 z"
           transform="matrix(0.49084607,0.46351681,-0.68657654,0.72705754,795.2834,-46.709937)" />
        <path
           transform="matrix(0.26422673,0,0,0.45199224,429.69139,415.71562)"
           d="m 575.71429,725.93359 a 13.214286,7.1428571 0 1 1 -26.42858,0 13.214286,7.1428571 0 1 1 26.42858,0 z"
           sodipodi:ry="7.1428571"
           sodipodi:rx="13.214286"
           sodipodi:cy="725.93359"
           sodipodi:cx="562.5"
           id="path4048"
           style="fill:#000600;fill-opacity:1;stroke:none"
           sodipodi:type="arc" />
      </g>
    </g>
    <path
       style="fill:#d2d2d2;fill-opacity:1;stroke:none"
       d="m 443.30893,940.44198 27.10568,-13.99003 -6.12064,-7.86939 c 0,0 30.60318,-16.61315 52.4626,-16.61315 21.85941,0 13.99002,-0.87438 13.99002,-0.87438 l -83.06577,48.09071 z"
       id="knife1"
       inkscape:connector-curvature="0"
       inkscape:label="#path4050"
       inkscape:export-xdpi="90"
       inkscape:export-ydpi="90" />
    <g
       id="g4076"
       inkscape:label="#g3768"
       transform="matrix(0.44525088,0.89540586,-0.89540586,0.44525088,978.74549,513.01232)"
       inkscape:export-xdpi="90"
       inkscape:export-ydpi="90"
       style="fill:#d2d2d2;fill-opacity:1;stroke:none">
      <g
         id="tracks1"
         transform="translate(11.020046,-145.87987)"
         inkscape:label="#g4104">
        <path
           transform="matrix(0.35976658,-0.93304234,0.93304234,0.35976658,-149.16369,514.82781)"
           d="m 168.57143,332.36218 c 0,11.0457 -16.62942,20 -37.14286,20 -20.51343,0 -37.142853,-8.9543 -37.142853,-20 0,-11.04569 16.629423,-20 37.142853,-20 20.51344,0 37.14286,8.95431 37.14286,20 z"
           sodipodi:ry="20"
           sodipodi:rx="37.142857"
           sodipodi:cy="332.36218"
           sodipodi:cx="131.42857"
           id="path4092"
           style="fill:#f0f0f0;fill-opacity:1;fill-rule:evenodd;stroke:none"
           sodipodi:type="arc" />
        <path
           sodipodi:type="arc"
           style="fill:#ebebeb;fill-opacity:1;fill-rule:evenodd;stroke:none"
           id="path4094"
           sodipodi:cx="131.42857"
           sodipodi:cy="332.36218"
           sodipodi:rx="37.142857"
           sodipodi:ry="20"
           d="m 168.57143,332.36218 c 0,11.0457 -16.62942,20 -37.14286,20 -20.51343,0 -37.142853,-8.9543 -37.142853,-20 0,-11.04569 16.629423,-20 37.142853,-20 20.51344,0 37.14286,8.95431 37.14286,20 z"
           transform="matrix(-0.25153942,0.96784706,-0.96784706,-0.25153942,594.65211,564.32297)"
           inkscape:transform-center-x="-29.545664"
           inkscape:transform-center-y="-12.296739" />
        <path
           inkscape:transform-center-y="-12.296739"
           inkscape:transform-center-x="-29.545664"
           transform="matrix(-0.25153942,0.96784706,-0.96784706,-0.25153942,634.8795,363.63428)"
           d="m 168.57143,332.36218 c 0,11.0457 -16.62942,20 -37.14286,20 -20.51343,0 -37.142853,-8.9543 -37.142853,-20 0,-11.04569 16.629423,-20 37.142853,-20 20.51344,0 37.14286,8.95431 37.14286,20 z"
           sodipodi:ry="20"
           sodipodi:rx="37.142857"
           sodipodi:cy="332.36218"
           sodipodi:cx="131.42857"
           id="path4100"
           style="fill:#f5f5f5;fill-opacity:1;fill-rule:evenodd;stroke:none"
           sodipodi:type="arc" />
        <path
           sodipodi:type="arc"
           style="fill:#fafafa;fill-opacity:1;fill-rule:evenodd;stroke:none"
           id="path4102"
           sodipodi:cx="131.42857"
           sodipodi:cy="332.36218"
           sodipodi:rx="37.142857"
           sodipodi:ry="20"
           d="m 168.57143,332.36218 c 0,11.0457 -16.62942,20 -37.14286,20 -20.51343,0 -37.142853,-8.9543 -37.142853,-20 0,-11.04569 16.629423,-20 37.142853,-20 20.51344,0 37.14286,8.95431 37.14286,20 z"
           transform="matrix(0.25755655,-0.96626323,0.96626323,0.25755655,-114.33498,366.17932)" />
      </g>
    </g>
  </g>
</svg>
