<?xml version="1.0" encoding="UTF-8" standalone="no"?>
<!-- Created with Inkscape (http://www.inkscape.org/) -->

<svg
   xmlns:dc="http://purl.org/dc/elements/1.1/"
   xmlns:cc="http://creativecommons.org/ns#"
   xmlns:rdf="http://www.w3.org/1999/02/22-rdf-syntax-ns#"
   xmlns:svg="http://www.w3.org/2000/svg"
   xmlns="http://www.w3.org/2000/svg"
   xmlns:xlink="http://www.w3.org/1999/xlink"
   xmlns:sodipodi="http://sodipodi.sourceforge.net/DTD/sodipodi-0.dtd"
   xmlns:inkscape="http://www.inkscape.org/namespaces/inkscape"
   width="2000"
   height="1000"
   id="svg2"
   version="1.1"
   inkscape:version="0.48.2 r9819"
   sodipodi:docname="layer1.svg"
   inkscape:export-filename="/Users/markku/Data/repository/ludumdare/nightbyday/resources/public/img/landscape.png"
   inkscape:export-xdpi="90"
   inkscape:export-ydpi="90">
  <defs
     id="defs4">
    <linearGradient
       id="linearGradient3790">
      <stop
         style="stop-color:#89e5ff;stop-opacity:1;"
         offset="0"
         id="stop3792" />
      <stop
         style="stop-color:#ffffff;stop-opacity:0;"
         offset="1"
         id="stop3794" />
    </linearGradient>
    <linearGradient
       inkscape:collect="always"
       xlink:href="#linearGradient3790"
       id="linearGradient3798"
       x1="142.35715"
       y1="555.98334"
       x2="142.35715"
       y2="9.7138062"
       gradientUnits="userSpaceOnUse" />
    <filter
       inkscape:collect="always"
       id="filter3844"
       x="-0.042096929"
       width="1.0841939"
       y="-0.10439905"
       height="1.2087981">
      <feGaussianBlur
         inkscape:collect="always"
         stdDeviation="10.986373"
         id="feGaussianBlur3846" />
    </filter>
    <filter
       inkscape:collect="always"
       id="filter3848">
      <feGaussianBlur
         inkscape:collect="always"
         stdDeviation="7.9086771"
         id="feGaussianBlur3850" />
    </filter>
    <filter
       inkscape:collect="always"
       id="filter3852">
      <feGaussianBlur
         inkscape:collect="always"
         stdDeviation="10.910781"
         id="feGaussianBlur3854" />
    </filter>
    <filter
       inkscape:collect="always"
       id="filter3856"
       x="-0.039358672"
       width="1.0787173"
       y="-0.12616749"
       height="1.252335">
      <feGaussianBlur
         inkscape:collect="always"
         stdDeviation="5.5840863"
         id="feGaussianBlur3858" />
    </filter>
    <filter
       inkscape:collect="always"
       id="filter3860">
      <feGaussianBlur
         inkscape:collect="always"
         stdDeviation="6.7978572"
         id="feGaussianBlur3862" />
    </filter>
  </defs>
  <sodipodi:namedview
     id="base"
     pagecolor="#ffffff"
     bordercolor="#666666"
     borderopacity="1.0"
     inkscape:pageopacity="0.0"
     inkscape:pageshadow="2"
     inkscape:zoom="0.30087394"
     inkscape:cx="905.99295"
     inkscape:cy="676.05808"
     inkscape:document-units="px"
     inkscape:current-layer="layer1"
     showgrid="false"
     width="2000px"
     inkscape:window-width="1366"
     inkscape:window-height="720"
     inkscape:window-x="0"
     inkscape:window-y="0"
     inkscape:window-maximized="1" />
  <metadata
     id="metadata7">
    <rdf:RDF>
      <cc:Work
         rdf:about="">
        <dc:format>image/svg+xml</dc:format>
        <dc:type
           rdf:resource="http://purl.org/dc/dcmitype/StillImage" />
        <dc:title></dc:title>
      </cc:Work>
    </rdf:RDF>
  </metadata>
  <g
     inkscape:label="Layer 1"
     inkscape:groupmode="layer"
     id="layer1"
     transform="translate(0,-52.362182)">
    <rect
       style="fill:url(#linearGradient3798);stroke:#ffffff;fill-opacity:1"
       id="rect3020"
       width="2011.4286"
       height="1002.8571"
       x="-8.5714283"
       y="-2.8571429"
       inkscape:export-filename="/Users/markku/Data/repository/ludumdare/nightbyday/resources/public/img/sky.png"
       inkscape:export-xdpi="90"
       inkscape:export-ydpi="90"
       transform="translate(0,52.362182)" />
    <path
       style="fill:#bfef99;fill-opacity:1;stroke:#e6e6e6;stroke-width:1px;stroke-linecap:butt;stroke-linejoin:miter;stroke-opacity:1;filter:url(#filter3860)"
       d="m -9.1428571,549.50504 c 0,0 72.6670741,-207.814 117.7142871,-200 45.04721,7.814 61.51202,274.1592 128.57143,285.71428 67.05941,11.55508 46.39271,-55.98219 82.85714,-54.28572 36.46443,1.69647 11.33337,84.19209 60,82.85715 48.66663,-1.33494 28.04351,-120.91055 82.85715,-120 54.81364,0.91055 54.68688,104.46221 102.85714,117.14286 48.17026,12.68065 75.9941,-61.38565 122.85714,-62.85715 46.86304,-1.4715 49.71608,37.76781 131.42857,57.14286 81.71249,19.37505 238.4585,18.511 360,20 121.5415,1.489 277.7181,8.59767 368.5714,-11.42857 90.8533,-20.02624 121.2395,-76.4229 174.2857,-74.28571 53.0462,2.13719 62.4308,76.16073 114.2858,60 51.855,-16.16073 60.1865,-171.5673 91.4285,-174.28572 31.242,-2.71842 82.2858,100 82.2858,100 l -5.7143,481.99998 -2025.714329,0 z"
       id="path2985"
       inkscape:connector-curvature="0"
       sodipodi:nodetypes="czzzzzzzzzzzzzcccc"
       inkscape:export-filename="/Users/markku/Data/repository/ludumdare/nightbyday/resources/public/img/landscape.png"
       inkscape:export-xdpi="90"
       inkscape:export-ydpi="90" />
    <path
       style="fill:#ffffff;stroke:#ffffff;stroke-width:1px;stroke-linecap:butt;stroke-linejoin:miter;stroke-opacity:1;filter:url(#filter3844)"
       d="m 249.02804,168.28966 c -1.90476,3.80953 -4.5442,7.33327 -5.71429,11.42857 -0.78491,2.74721 0,5.71429 0,8.57143 0,9.52381 0,19.04762 0,28.57143 0,4.7619 0,9.52381 0,14.28571 0,10.10356 -1.15493,16.35278 2.85715,25.71429 1.35266,3.15621 4.17861,5.50009 5.71428,8.57143 1.34687,2.69374 1.30764,5.98892 2.85714,8.57143 3.6709,6.11816 6.11085,5.38079 11.42858,8.57143 5.88901,3.53341 11.00018,8.35723 17.14285,11.42857 2.69374,1.34687 5.77514,1.73863 8.57143,2.85714 1.97727,0.79091 3.64828,2.34064 5.71429,2.85714 1.84789,0.46198 3.86639,-0.46197 5.71428,0 4.40746,1.10187 7.02111,4.61242 11.42857,5.71429 1.84789,0.46197 3.80953,0 5.71429,0 4.7619,0 9.52381,0 14.28571,0 3.80953,0 7.69303,0.74711 11.42858,0 2.51959,-0.50392 5.16946,-7.75419 5.71428,-8.57143 0.74711,-1.12066 1.90476,-1.90476 2.85714,-2.85714 2.85715,-2.85715 5.71429,-5.71429 8.57143,-8.57143 0.55789,-0.55789 3.61228,-4.95915 5.71429,-2.85714 6.61948,6.61948 7.33609,14.67218 11.42857,22.85714 0.69699,1.39397 11.45259,19.4574 14.28571,22.85714 2.58674,3.10408 5.94184,5.50357 8.57143,8.57143 3.09901,3.61551 5.20426,8.0614 8.57143,11.42857 3.11334,3.11334 22.24978,13.29586 25.71429,14.28572 2.74721,0.78491 5.75316,-0.46972 8.57143,0 2.97071,0.49511 5.61822,2.2665 8.57142,2.85714 1.86778,0.37355 3.80953,0 5.71429,0 5.71429,0 11.42857,0 17.14286,0 5.71428,0 11.53954,1.12066 17.14285,0 1.32072,-0.26414 1.77965,-2.04902 2.85715,-2.85714 17.14285,-12.85715 0.95238,2.38095 14.28571,-14.28572 1.68277,-2.10346 4.32837,-3.40442 5.71429,-5.71428 1.5495,-2.58251 1.30764,-5.98893 2.85714,-8.57143 1.38592,-2.30987 4.03152,-3.61083 5.71429,-5.71429 2.14511,-2.68139 3.94758,-5.62692 5.71428,-8.57143 6.29476,-1.43883 1.51027,-5.87769 2.85714,-8.57143 0.60234,-1.20467 1.65247,-2.2548 2.85715,-2.85714 0.85183,-0.42592 1.90476,0 2.85714,0 1.90476,0 3.90727,-0.60234 5.71429,0 1.27775,0.42592 1.90476,1.90476 2.85714,2.85714 2.85714,2.85715 5.46734,5.9847 8.57143,8.57143 2.63796,2.19831 5.77718,3.7184 8.57143,5.71429 3.87492,2.7678 7.77037,5.52293 11.42857,8.57143 4.00382,3.33652 7.7065,7.7065 11.42857,11.42857 1.90476,1.90476 3.55929,4.09804 5.71428,5.71428 3.36321,2.52241 10.82843,4.56186 14.28572,5.71429 2.85714,0.95238 6.21969,0.97575 8.57143,2.85714 2.68139,2.14512 2.9672,6.51112 5.71428,8.57143 1.52381,1.14286 3.90727,-0.60234 5.71429,0 8.57143,2.85714 10,5.71429 17.14286,8.57143 2.79628,1.11851 5.77514,1.73863 8.57142,2.85714 1.97728,0.79091 3.62606,2.4395 5.71429,2.85715 3.01711,0.60342 15.86802,0 20,0 3.80952,0 7.81454,1.20467 11.42857,0 2.55551,-0.85184 3.40442,-4.32837 5.71429,-5.71429 2.5825,-1.5495 5.98892,-1.30764 8.57143,-2.85714 1.17157,-0.70295 13.40403,-13.11015 14.28571,-14.28572 1.27775,-1.70367 1.67586,-3.94236 2.85714,-5.71428 0.74711,-1.12067 2.11004,-1.73648 2.85715,-2.85715 2.36256,-3.54385 3.35172,-7.88472 5.71428,-11.42857 0.74711,-1.12066 2.25481,-1.65246 2.85714,-2.85714 0.42592,-0.85184 -0.42591,-2.00531 0,-2.85714 0.60234,-1.20468 2.25481,-1.65247 2.85715,-2.85715 0.42591,-0.85183 -0.85184,-2.43122 0,-2.85714 1.70367,-0.85183 3.83544,-0.31314 5.71428,0 5.14706,0.85784 30.62082,8.2777 31.42857,8.57143 8.0055,2.91109 14.88116,8.43758 22.85715,11.42857 11.17037,4.18889 22.64371,2.85714 34.28571,2.85714 1.90476,0 3.80953,0 5.71429,0 2.85714,0 5.8609,0.90351 8.57143,0 9.52831,-3.1761 7.54122,-4.94966 11.42857,-11.42857 9.48999,-15.81666 3.0546,-0.69112 8.57143,-20 0.82737,-2.89581 2.43122,-5.59 2.85714,-8.57143 0.53875,-3.77123 0,-7.61904 0,-11.42857 0,-5.71428 0,-11.42857 0,-17.14285 0,-9.00632 1.61515,-32.54619 -2.85714,-40 -1.09567,-1.82611 -4.01062,-1.57939 -5.71429,-2.85715 -2.15499,-1.61624 -3.55929,-4.09804 -5.71429,-5.71428 -1.70367,-1.27776 -4.01061,-1.57939 -5.71428,-2.85715 -4.89709,-3.67282 -5.14146,-7.314 -11.42857,-8.57142 -2.80166,-0.56034 -5.71429,0 -8.57143,0 -7.61905,0 -15.2381,0 -22.85714,0 -2.85715,0 -5.86091,0.9035 -8.57143,0 -0.90351,-0.30117 0,-1.90477 0,-2.85715 0,-1.90476 0,-3.80952 0,-5.71428 0,-4.87009 0.30117,-5.11195 -2.85715,-11.42857 -1.53566,-3.07134 -3.80952,-5.71429 -5.71428,-8.57143 -1.90476,-2.85715 -3.28618,-6.14333 -5.71429,-8.57143 -1.50584,-1.50585 -4.01061,-1.57939 -5.71428,-2.85714 -2.15499,-1.61625 -3.5593,-4.09805 -5.71429,-5.71429 -1.41608,-1.06206 -15.61581,-8.26602 -17.14286,-8.57143 -3.01711,-0.60342 -15.86802,0 -20,0 -1.88787,0 -16.46381,-0.45269 -17.14285,0 -4.88544,3.25696 -8.37189,9.70069 -11.42857,14.28572 -1.22902,1.84352 -7.69287,10.77146 -8.57143,14.28571 -4.01354,16.05415 4.18487,-1.99159 -2.85715,8.57143 -1.60995,2.41493 -2.60497,10.18912 -8.57142,5.71428 -2.74709,-2.06031 -3.56918,-5.89003 -5.71429,-8.57142 -5.0483,-6.31038 -11.88367,-11.00714 -17.14286,-17.14286 -2.23472,-2.60718 -3.28618,-6.14333 -5.71428,-8.57143 -8.18818,-8.18818 -7.84772,-3.92386 -17.14286,-8.57143 -6.14267,-3.07133 -11.00018,-8.35723 -17.14286,-11.42857 -2.69374,-1.34687 -5.77514,-1.73863 -8.57143,-2.85714 -1.97727,-0.79091 -3.64828,-2.34064 -5.71428,-2.85715 -2.95969,-0.73992 -8.15239,0 -11.42857,0 -2.85715,0 -5.7996,-0.69295 -8.57143,0 -4.49264,1.12316 -8.80133,5.06844 -11.42857,8.57143 -1.27776,1.70367 -1.67586,3.94236 -2.85715,5.71429 -0.7471,1.12066 -2.11003,1.73648 -2.85714,2.85714 -1.18128,1.77193 -1.67586,3.94236 -2.85714,5.71429 -1.49422,2.24132 -4.50961,3.30493 -5.71429,5.71428 -0.42591,0.85184 0.30117,1.95364 0,2.85715 -0.5893,1.76791 -3.51787,10.76783 -8.57143,5.71428 -1.34687,-1.34687 1.14286,-4.19047 0,-5.71428 -2.06031,-2.74709 -5.93346,-3.51599 -8.57142,-5.71429 -5,-4.16667 -15.55556,-16.66667 -20,-20 -5.26048,-3.94536 -20.42521,-9.02444 -25.71429,-11.42857 -5.81612,-2.64369 -11.21104,-6.1987 -17.14286,-8.57143 -3.24717,-1.29887 -23.52227,-5.47073 -25.71428,-5.71429 -3.78623,-0.42069 -7.61905,0 -11.42857,0 -7.61905,0 -15.2381,0 -22.85715,0 -1.90476,0 -4.36741,-1.34687 -5.71428,0 -2.12959,2.12959 -1.67078,5.80325 -2.85715,8.57143 -1.67777,3.9148 -4.36741,7.38796 -5.71428,11.42857 -0.60234,1.80702 0.37355,3.84652 0,5.71429 -0.59064,2.95321 -2.2665,5.61822 -2.85714,8.57143 -1.59175,7.95875 3.1156,5.45582 -2.85715,11.42857 -0.55789,0.55789 -3.61228,4.95915 -5.71428,2.85714 -1.50585,-1.50584 -1.3513,-4.20844 -2.85715,-5.71428 -1.50584,-1.50585 -4.01061,-1.57939 -5.71428,-2.85715 -2.15499,-1.61624 -3.6449,-3.98979 -5.71429,-5.71428 -3.65819,-3.0485 -7.77037,-5.52293 -11.42857,-8.57143 -2.06939,-1.72449 -3.61083,-4.03152 -5.71428,-5.71429 -13.64696,-10.91756 -3.06006,-1.53002 -17.14286,-8.57142 -3.07134,-1.53567 -5.38317,-4.43899 -8.57143,-5.71429 -3.53705,-1.41482 -7.73279,0.92395 -11.42857,0 -2.06601,-0.5165 -3.64828,-2.34064 -5.71429,-2.85714 -1.84789,-0.46198 -3.80952,0 -5.71428,0 -1.90476,0 -4.01062,-0.85184 -5.71429,0 -0.85183,0.42591 0.30117,1.95363 0,2.85714 -0.67343,2.02031 -1.57939,4.01061 -2.85714,5.71429 -1.61625,2.15499 -4.32837,3.40442 -5.71429,5.71428 -1.5495,2.58251 -1.90476,5.71429 -2.85714,8.57143 -0.95238,2.85714 -1.90476,5.71429 -2.85714,8.57143 -0.95238,2.85714 -1.73863,5.77514 -2.85715,8.57143 -0.79091,1.97727 -2.43949,3.62605 -2.85714,5.71428 -0.56033,2.80166 0,5.71429 0,8.57143 0,1.64628 0.52068,13.24436 0,14.28572 -0.60234,1.20467 -1.51027,2.85714 -2.85714,2.85714 -6.66667,0 -5.71429,-4.76191 -8.57143,-8.57143 -1.61624,-2.15499 -3.80952,-3.80952 -5.71429,-5.71429 -0.95238,-0.95238 -2.2548,-1.65246 -2.85714,-2.85714 -0.42592,-0.85183 0.42592,-2.00531 0,-2.85714 -5.94537,-11.89075 0.19725,3.05439 -5.71428,-2.85714 -1.50585,-1.50585 -1.90477,-3.80953 -2.85715,-5.71429 -4.7619,-2.85714 -9.52381,-5.71429 -14.28571,-8.57143 z"
       id="path3012"
       inkscape:connector-curvature="0"
       inkscape:export-filename="/Users/markku/Data/repository/ludumdare/nightbyday/resources/public/img/clouds.png"
       inkscape:export-xdpi="90"
       inkscape:export-ydpi="90" />
    <path
       style="fill:#ffffff;stroke:#ffffff;stroke-width:1px;stroke-linecap:butt;stroke-linejoin:miter;stroke-opacity:1;filter:url(#filter3848)"
       d="m 1097.5995,294.00395 c -1.9048,5.71428 -4.4077,11.2629 -5.7143,17.14285 -0.6198,2.78911 0,5.71429 0,8.57143 0,7.61905 0,15.2381 0,22.85715 0,4.7619 0,9.52381 0,14.28571 0,1.90476 -0.7074,3.94576 0,5.71429 3.7745,9.43643 7.9792,10.35846 17.1428,14.28571 2.7682,1.18636 6.0656,1.18656 8.5715,2.85714 3.3619,2.24133 4.9574,6.76442 8.5714,8.57143 2.5555,1.27775 5.7996,-0.69296 8.5714,0 1.3067,0.32667 1.5794,2.43123 2.8572,2.85714 1.807,0.60234 3.8095,0 5.7142,0 1.9048,0 3.8096,0 5.7143,0 1.9048,0 3.8096,0 5.7143,0 2.8572,0 5.7996,0.69296 8.5714,0 6.0914,-1.52284 1.3072,-11.94522 11.4286,-8.57142 2.1549,0.71828 8.5656,11.42072 8.5714,11.42857 21.4258,28.56764 0.7223,0.009 25.7143,28.57143 2.2612,2.58424 3.516,5.93346 5.7143,8.57142 5.3726,6.44713 20.2125,20.76742 28.5714,22.85715 1.8479,0.46197 3.8096,0 5.7143,0 2.8572,0 5.7143,0 8.5715,0 6.8262,0 10.8751,0.90351 17.1428,-2.85715 2.3099,-1.38591 3.8095,-3.80952 5.7143,-5.71428 1.9048,-1.90476 4.098,-3.5593 5.7143,-5.71429 0.8434,-1.1246 8.2588,-15.89238 8.5714,-17.14285 0.462,-1.84789 0,-3.80953 0,-5.71429 0,-3.80952 0,-7.61905 0,-11.42857 0,-1.90476 -0.8518,-4.01062 0,-5.71429 0.4259,-0.85183 1.9048,0 2.8572,0 1.9047,0 4.0106,-0.85183 5.7142,0 4.8188,2.40936 6.8089,8.65674 11.4286,11.42857 2.5825,1.54951 5.7143,1.90477 8.5714,2.85715 2.8572,0.95238 5.6008,2.36202 8.5715,2.85714 2.8182,0.46971 5.7363,-0.35438 8.5714,0 4.8187,0.60234 9.467,2.2548 14.2857,2.85714 5.6702,0.70877 11.4286,0 17.1429,0 2.8571,0 5.7143,0 8.5714,0 1.9048,0 3.9458,0.70741 5.7143,0 3.0734,-1.22938 12.2145,-7.97658 14.2857,-11.42857 2.0442,-6.1327 2.5613,-9.0307 5.7143,-14.28571 1.7667,-2.94451 4.6284,-5.31379 5.7143,-8.57143 0.9035,-2.71053 0,-5.71429 0,-8.57143 0,-1.90476 -0.8519,-4.01061 0,-5.71429 0.4259,-0.85183 1.9047,0 2.8571,0 0.9524,0 2.0647,-0.52828 2.8572,0 2.2413,1.49422 3.5593,4.09805 5.7142,5.71429 3.8289,2.87165 10.1699,4.06796 14.2858,5.71429 6.6618,2.66473 6.1634,4.36057 14.2857,5.71428 3.6208,0.60347 22.4406,0 25.7143,0 7.0026,0 8.7725,1.27775 14.2857,-2.85714 8.3554,-6.26658 8.6948,-13.28907 11.4285,-22.85714 4.363,-15.27047 2.8572,-2.11049 2.8572,-22.85715 0,-3.80952 0.8264,-7.70976 0,-11.42857 -2.0678,-9.30508 -6.1647,-15.4877 -11.4286,-22.85714 -2.7678,-3.87492 -4.9559,-8.32957 -8.5714,-11.42857 -3.2338,-2.77184 -7.7306,-3.60114 -11.4286,-5.71429 -2.9814,-1.70367 -5.3562,-4.50858 -8.5714,-5.71428 -19.4907,-7.30901 -8.2768,0.0491 -25.7143,-2.85715 -2.1006,-0.3501 -3.694,-2.1837 -5.7143,-2.85714 -1.807,-0.60234 -3.8095,0 -5.7143,0 -1.9047,0 -4.0106,-0.85184 -5.7143,0 -0.8518,0.42592 0.9524,2.85714 0,2.85714 -1.9047,0 0.8519,-4.01061 0,-5.71428 -3.6042,-7.20851 -6.1135,-8.97073 -11.4285,-14.28572 -2.8572,-2.85714 -5.2835,-6.22287 -8.5715,-8.57143 -3.4658,-2.47559 -7.8847,-3.35172 -11.4285,-5.71428 -6.8309,-4.55389 -3.6127,-6.61746 -11.4286,-8.57143 -2.5901,-0.64753 -10.9667,0 -14.2857,0 -1.9048,0 -3.8095,0 -5.7143,0 -1.9048,0 -4.0106,-0.85184 -5.7143,0 -2.4093,1.20468 -3.8095,3.80952 -5.7143,5.71429 -1.9047,1.90476 -3.8095,3.80952 -5.7143,5.71428 -1.9047,1.90476 -3.5593,4.09804 -5.7142,5.71429 -1.7037,1.27775 -4.2085,1.35129 -5.7143,2.85714 -2.4281,2.4281 -3.9476,5.62692 -5.7143,8.57143 -4.8322,8.05358 -1.937,5.81103 -5.7143,17.14286 -1.3469,4.04061 -4.6813,7.29656 -5.7143,11.42857 -0.462,1.84789 0.8518,4.01061 0,5.71428 -0.4259,0.85184 -2.1837,0.67344 -2.8571,0 -0.6735,-0.67343 0.6734,-2.1837 0,-2.85714 -1.5059,-1.50585 -3.9814,-1.61934 -5.7143,-2.85714 -4.9623,-3.54452 -9.6556,-7.45991 -14.2857,-11.42857 -2.0453,-1.75307 -3.6109,-4.03152 -5.7143,-5.71429 -7.9124,-6.32989 -8.0896,-5.55368 -17.1429,-8.57143 -2.8571,-0.95238 -5.6007,-2.36202 -8.5714,-2.85714 -2.8183,-0.46971 -5.7698,0.56033 -8.5714,0 -2.0883,-0.41765 -3.737,-2.06623 -5.7143,-2.85714 -2.7963,-1.11852 -5.6182,-2.26651 -8.5714,-2.85715 -1.8678,-0.37355 -3.8096,0 -5.7143,0 -3.8096,0 -7.6191,0 -11.4286,0 -0.9524,0 -2.1837,-0.67343 -2.8571,0 -1.5059,1.50585 -1.6759,3.94236 -2.8572,5.71429 -4.3587,6.53801 -2.2616,-1.78655 -5.7143,8.57143 -0.3011,0.90351 0.4259,2.0053 0,2.85714 -0.6023,1.20468 -2.4312,1.57939 -2.8571,2.85714 -1.2047,3.61403 1.2047,7.81454 0,11.42857 -0.4259,1.27776 -2.4312,1.57939 -2.8572,2.85715 -0.6023,1.80701 0.8519,4.01061 0,5.71428 -0.4259,0.85184 -2.1837,0.67344 -2.8571,0 -0.6734,-0.67343 0,-1.90476 0,-2.85714 0,-1.90476 1.0566,-4.12943 0,-5.71429 -1.1813,-1.77192 -4.4365,-1.15347 -5.7143,-2.85714 -1.807,-2.40935 -1.3076,-5.98892 -2.8571,-8.57143 -1.3859,-2.30986 -4.0981,-3.55929 -5.7143,-5.71428 -1.2778,-1.70367 -1.1535,-4.43654 -2.8572,-5.71429 -2.4093,-1.80701 -5.8776,-1.51027 -8.5714,-2.85714 -1.2047,-0.60234 -1.7365,-2.11004 -2.8571,-2.85714 -1.772,-1.18129 -4.0106,-1.57939 -5.7143,-2.85715 -2.155,-1.61624 -3.5593,-4.09804 -5.7143,-5.71428 -1.7037,-1.27776 -3.8095,-1.90476 -5.7143,-2.85715 -1.9047,-0.95238 -3.6483,-2.34064 -5.7143,-2.85714 -2.229,-0.55726 -13.808,0 -17.1428,0 -1.9048,0 -3.8096,0 -5.7143,0 -0.9524,0 -2.1837,-0.67343 -2.8572,0 -0.6734,0.67344 0.6735,2.18371 0,2.85714 -1.5058,1.50585 -4.2084,1.3513 -5.7142,2.85715 -0.6735,0.67343 0.4259,2.0053 0,2.85714 -0.6024,1.20468 -2.2548,1.65247 -2.8572,2.85714 -0.4259,0.85184 0,1.90476 0,2.85715 -0.9524,1.90476 -1.6758,3.94236 -2.8571,5.71428 -1.4942,2.24133 -4.2201,3.47296 -5.7143,5.71429 -2.5754,3.86308 -8.2686,19.24291 -8.5714,20 z"
       id="path3014"
       inkscape:connector-curvature="0"
       inkscape:export-filename="/Users/markku/Data/repository/ludumdare/nightbyday/resources/public/img/clouds.png"
       inkscape:export-xdpi="90"
       inkscape:export-ydpi="90" />
    <path
       style="fill:#ffffff;stroke:#ffffff;stroke-width:1px;stroke-linecap:butt;stroke-linejoin:miter;stroke-opacity:1;filter:url(#filter3852)"
       d="m 1669.028,114.00395 c 0,14.28571 0,28.57143 0,42.85714 0,4.7619 -1.0707,9.64576 0,14.28571 2.842,12.3154 12.4847,32.52357 20,42.85715 3.1688,4.35705 7.8809,7.37408 11.4286,11.42857 3.1357,3.5837 5.2043,8.06139 8.5714,11.42857 2.236,2.23598 10.5281,7.06837 14.2857,8.57143 2.7963,1.11851 5.59,2.43122 8.5715,2.85714 4.6102,0.65861 20.1032,0 25.7143,0 1.9047,0 3.8095,0 5.7142,0 0.9524,0 2.3289,-0.79243 2.8572,0 0.1078,0.16171 5.4773,16.5899 5.7143,17.14286 3.8255,8.92633 9.0886,19.67358 17.1428,25.71428 1.7037,1.27776 3.8096,1.90477 5.7143,2.85715 1.9048,0.95238 3.6483,2.34064 5.7143,2.85714 1.8479,0.46197 3.8095,0 5.7143,0 1.9047,0 3.8095,0 5.7143,0 2.8571,0 5.7143,0 8.5714,0 1.9048,0 3.8664,0.46197 5.7143,0 5.4157,-1.35394 7.6337,-4.77652 11.4286,-8.57143 5.3149,-5.31498 7.8243,-7.07721 11.4285,-14.28571 1.3469,-2.69374 1.7387,-5.77514 2.8572,-8.57143 0.7909,-1.97727 2.3406,-3.64828 2.8571,-5.71429 0.462,-1.84789 0,-3.80952 0,-5.71428 0,-4.30132 -0.9323,-15.21801 2.8572,-11.42857 0.9523,0.95238 -3.9778,2.11003 -2.8572,2.85714 3.2673,2.17818 7.7518,1.47836 11.4286,2.85714 3.988,1.4955 7.7054,3.64585 11.4286,5.71429 12.1915,6.77306 13.726,9.14788 25.7142,14.28571 2.7682,1.18637 5.7143,1.90476 8.5715,2.85714 2.8571,0.95239 5.59,2.43123 8.5714,2.85715 3.7712,0.53875 7.619,0 11.4286,0 8.5714,0 17.1428,0 25.7143,0 2.8571,0 5.7142,0 8.5714,0 1.9047,0 3.8664,0.46197 5.7143,0 5.9259,-1.48148 6.455,-3.28043 8.5714,-8.57143 1.1185,-2.79629 2.1267,-5.64966 2.8571,-8.57143 0.231,-0.92395 -0.6734,-2.18371 0,-2.85714 0.6735,-0.67344 2.1838,0.67343 2.8572,0 2.0703,-2.07033 -4.4185,-10.0569 5.7143,-5.71429 10.3157,4.42104 18.1821,12.98715 28.5714,17.14286 9.8117,3.92467 12.6318,2.85714 22.8571,2.85714 3.8096,0 7.6931,0.74711 11.4286,0 4.0885,-0.81769 10.4762,-3.42857 14.2857,-5.71428 2.9445,-1.76671 5.6269,-3.94758 8.5715,-5.71429 8.9019,-5.34119 3.7547,-0.14665 14.2857,-8.57143 4.4291,-3.54332 8.9535,-9.33564 11.4285,-14.28571 1.3469,-2.69374 1.5103,-5.87769 2.8572,-8.57143 1.5357,-3.07134 4.3616,-5.41522 5.7143,-8.57143 1.5468,-3.60927 1.7783,-7.65289 2.8571,-11.42857 0.8274,-2.89582 2.362,-5.60071 2.8572,-8.57143 0.4697,-2.81827 0,-5.71429 0,-8.57143 0,-5.71428 0,-11.42857 0,-17.14286 0,-1.90476 1.3468,-4.36741 0,-5.71428 -1.3469,-1.34687 -7.6191,0 -5.7143,0 16.1904,0 32.3809,0 48.5714,0 7.619,0 15.2381,0 22.8571,0 1.9048,0 4.0107,0.85183 5.7143,0 2.4094,-1.20468 4.5096,-3.30493 5.7143,-5.71429 1.7561,-3.5122 1.7784,-7.65289 2.8572,-11.42857 0.073,-0.25649 5.705,-17.07801 5.7142,-17.14286 0.5388,-3.77123 0,-7.61904 0,-11.42857 0,-6.55167 0.924,-16.8074 -2.8571,-22.857138 -3.8127,-6.10029 -20.7232,-18.9752 -25.7143,-22.85714 -12.7905,-9.94822 -30.4362,-23.47873 -45.7143,-28.57143 -10.4349,-3.47831 -20.7748,-2.85715 -31.4285,-2.85715 -3.8096,0 -8.0213,1.70368 -11.4286,0 -1.7037,-0.85183 0,-3.80952 0,-5.71428 0,-2.85714 1.0032,-5.8962 0,-8.57143 -1.9499,-5.1997 -6.0879,-9.3187 -8.5714,-14.28571 -3.1254,-6.2507403 -6.8843,-19.6552003 -11.4286,-25.71429 -3.2325,-4.30998 -7.6191,-7.61905 -11.4286,-11.42857 -2.8571,-2.85714 -5.2094,-6.3301 -8.5714,-8.57143 -2.5059,-1.67059 -5.8777,-1.51027 -8.5714,-2.85714 -3.0714,-1.53567 -5.2401,-4.88145 -8.5715,-5.71429 -4.6197,-1.15493 -9.5238,0 -14.2857,0 -6.6667,0 -13.3333,0 -20,0 -5.7143,0 -11.4286,0 -17.1428,0 -8.5006,0 -16.5949,-2.1136 -22.8572,5.71429 -1.8814,2.35174 -1.7386,5.77514 -2.8571,8.57143 -7.8347,19.5866897 3.5994,-15.45499 -5.7143,17.1428497 -1.6548,5.79163 -4.533,11.23644 -5.7143,17.14286 -0.2232,1.11578 1.5047,8.5714303 -2.8571,8.5714303 -0.9524,0 0.5282,-2.06471 0,-2.85714 -1.4943,-2.24133 -4.1486,-3.5223 -5.7143,-5.7142903 -3.2278,-4.5189 -4.9146,-10.10644 -8.5715,-14.28571 -3.1357,-3.5837 -7.619,-5.7142897 -11.4285,-8.5714297 -7.0406,-5.28046 -14.1418,-11.67109 -22.8572,-14.28572 -5.5488,-1.66463 -11.4622,-1.72102 -17.1428,-2.85714 -3.8505,-0.7701 -7.5413,-2.30181 -11.4286,-2.85714 -2.8284,-0.40406 -5.7143,0 -8.5714,0 -3.8096,0 -7.6191,0 -11.4286,0 -2.8571,0 -5.7143,0 -8.5714,0 -1.9048,0 -4.0106,-0.85184 -5.7143,0 -3.5433,1.77166 -10.0828,11.59407 -11.4286,14.28571 -1.3469,2.69374 -1.7997,5.75149 -2.8571,8.57143 -1.2134,3.2355397 -7.3923,17.5510997 -8.5715,22.85714 -1.2567,5.65516 -1.6004,11.4877 -2.8571,17.14286 -0.6533,2.93998 -2.362,5.60071 -2.8571,8.57143 -5.4162,32.49712 5.3147,-10.22994 -2.8572,14.28571 -0.3012,0.90351 0.4259,2.00531 0,2.85715 -0.6023,1.20467 -1.6525,2.2548 -2.8571,2.85714 -0.8519,0.42592 -1.9048,0 -2.8572,0 -0.9524,0 -1.9047,0 -2.8571,0 -2.8572,0 -5.7143,0 -8.5714,0 -10.4762,0 -20.9524,0 -31.4286,0 -1.5947,0 -12.9778,-0.43597 -14.2857,0 -1.2778,0.42592 -1.9048,1.90476 -2.8572,2.85714 -0.9524,0.95238 -2.2548,1.65247 -2.8571,2.85715 -0.4259,0.85183 0.6734,2.1837 0,2.85714 -0.6734,0.67343 -2.1837,-0.67344 -2.8572,0 -0.6734,0.67343 0.426,2.00531 0,2.85714 -6.538,13.07602 1.1842,-12.12405 -5.7142,8.57143 -0.3012,0.90351 0.6734,2.18371 0,2.85714 -1.5059,1.50585 -4.2085,1.3513 -5.7143,2.85715 -0.6735,0.67343 0.6734,2.1837 0,2.85714 -0.6735,0.67343 -2.1837,-0.67344 -2.8572,0 -1.7502,1.75021 -2.4323,7.47744 -5.7143,8.57143 -1.807,0.60234 -3.9072,-0.60234 -5.7142,0 -1.2778,0.42591 -1.6525,2.2548 -2.8572,2.85714 -0.8518,0.42592 -2.0053,-0.42592 -2.8571,0 -4.376,2.18797 -2.2344,5.091478 -5.7143,8.571428 -0.6734,0.67343 -2.0053,-0.42592 -2.8572,0 -4.967,2.4835 -9.5238,5.71428 -14.2857,8.57143 z"
       id="path3016"
       inkscape:connector-curvature="0"
       inkscape:export-filename="/Users/markku/Data/repository/ludumdare/nightbyday/resources/public/img/clouds.png"
       inkscape:export-xdpi="90"
       inkscape:export-ydpi="90" />
    <path
       style="fill:#ffffff;stroke:#ffffff;stroke-width:1px;stroke-linecap:butt;stroke-linejoin:miter;stroke-opacity:1;filter:url(#filter3856)"
       d="m 831.88518,528.28966 c 1.90476,3.80953 9.52381,9.52381 5.71429,11.42857 -3.80953,1.90476 -9.25814,-13.79113 -5.71429,-11.42857 6.18907,4.12605 8.33505,12.67986 14.28572,17.14286 0.23343,0.17507 18.00951,0 20,0 0.95238,0 2.0053,0.42592 2.85714,0 1.20468,-0.60234 1.73648,-2.11004 2.85714,-2.85714 1.77193,-1.18129 3.94236,-1.67586 5.71429,-2.85715 1.12066,-0.74711 1.65246,-2.2548 2.85714,-2.85714 0.85184,-0.42592 2.18371,-0.67344 2.85714,0 0.67344,0.67344 -0.42591,2.00531 0,2.85714 0.60234,1.20468 2.11004,1.73648 2.85715,2.85715 1.18128,1.77192 1.35129,4.20843 2.85714,5.71428 1.50585,1.50585 4.20844,1.3513 5.71428,2.85714 8.04497,0.17736 0.72756,6.44184 2.85715,8.57143 7.21686,7.21687 3.29367,1.09789 8.57143,2.85715 2.0203,0.67343 3.69398,2.1837 5.71428,2.85714 0.90351,0.30117 1.90476,0 2.85714,0 1.90477,0 3.80953,0 5.71429,0 5.41942,0 12.85631,1.4294 17.14286,-2.85714 0.67343,-0.67344 -0.30117,-1.95364 0,-2.85715 0.67343,-2.0203 2.1837,-3.69398 2.85714,-5.71428 0.30117,-0.90351 -0.67344,-2.18371 0,-2.85715 1.50585,-1.50584 4.533,-1.08521 5.71429,-2.85714 1.05657,-1.58486 -1.90477,-5.71428 0,-5.71428 11.16128,0 -13.33054,16.18767 2.85714,0 0.67343,-0.67344 -0.42592,2.0053 0,2.85714 0.60234,1.20468 1.65246,2.2548 2.85714,2.85714 2.69374,1.34687 5.77514,1.73863 8.57143,2.85714 3.95455,1.58182 7.61905,3.80953 11.42857,5.71429 7.61905,3.80952 15.2381,7.61905 22.85714,11.42857 3.80953,1.90476 7.38798,4.36742 11.42858,5.71429 1.807,0.60234 3.8095,0 5.7143,0 4.7619,0 9.5238,0 14.2857,0 0.9524,0 2.1837,0.67343 2.8571,0 5.9116,-5.91153 -9.0336,0.23108 2.8572,-5.71429 0.8518,-0.42592 2.4312,0.85184 2.8571,0 0.8519,-1.70367 -0.6023,-3.90727 0,-5.71428 0.4259,-1.27776 2.2548,-1.65247 2.8572,-2.85715 0.5664,-1.13283 -0.5841,-7.98732 0,-8.57143 0.6734,-0.67343 1.9047,0 2.8571,0 1.9048,0 3.8095,0 5.7143,0 0.9524,0 1.9536,-0.30117 2.8571,0 2.0203,0.67344 3.694,2.18371 5.7143,2.85715 1.807,0.60234 3.8095,0 5.7143,0 6.6667,0 13.3333,0 20,0 1.9048,0 3.8095,0 5.7143,0 2.8571,0 5.9186,1.06111 8.5714,0 2.5011,-1.00043 3.5593,-4.09804 5.7143,-5.71429 1.7037,-1.27775 4.2084,-1.35129 5.7143,-2.85714 1.5058,-1.50585 1.3513,-4.20844 2.8571,-5.71429 16.1877,-8.09383 -2.1296,3.19439 5.7143,-8.57143 1.1813,-1.77192 4.533,-1.08521 5.7143,-2.85714 1.0566,-1.58486 0,-3.80952 0,-5.71428 0,-1.90477 0,-3.80953 0,-5.71429 0,-0.95238 0.3012,-1.95363 0,-2.85714 -3.4527,-10.35798 -1.3556,-2.03342 -5.7143,-8.57143 -1.1813,-1.77193 -1.1535,-4.43653 -2.8571,-5.71429 -2.4094,-1.80701 -5.7752,-1.73863 -8.5715,-2.85714 -1.9772,-0.79091 -3.9423,-1.67586 -5.7142,-2.85714 -1.1207,-0.74711 -1.7365,-2.11004 -2.8572,-2.85715 -1.3774,-0.9183 -15.9312,-8.3291 -17.1428,-8.57142 -4.6695,-0.93389 -9.5239,0 -14.2858,0 -0.6789,0 -10.7882,-0.32019 -11.4285,0 -11.8908,5.94537 3.0544,-0.19725 -2.8572,5.71428 -5.9115,5.91153 0.2311,-9.0336 -5.7143,2.85714 -0.4259,0.85184 0.9524,2.85715 0,2.85715 -10.4999,0 -3.955,-2.19579 -5.7142,-5.71429 -0.6024,-1.20468 -1.9048,-1.90476 -2.8572,-2.85714 -1.9047,-1.90476 -3.4044,-4.32837 -5.7143,-5.71429 -2.5825,-1.5495 -6.162,-1.05012 -8.5714,-2.85714 -1.7037,-1.27775 -1.0852,-4.533 -2.8571,-5.71429 -1.5849,-1.05657 -3.8466,0.37356 -5.7143,0 -2.9532,-0.59064 -5.6007,-2.36202 -8.5715,-2.85714 -2.8182,-0.46971 -5.71423,0 -8.57138,0 -2.85714,0 -5.71428,0 -8.57142,0 -7.52942,0 -3.89916,0 -11.42858,0 -1.90476,0 -3.80952,0 -5.71428,0 -0.95238,0 -1.95364,-0.30117 -2.85714,0 -2.02031,0.67344 -3.94237,1.67586 -5.71429,2.85714 -5.52096,3.68064 -3.46426,12.58333 -8.57143,14.28572 -1.80701,0.60234 -3.80952,0 -5.71428,0 -1.90477,0 -3.8664,0.46197 -5.71429,0 -2.066,-0.5165 -3.64828,-2.34064 -5.71429,-2.85714 -13.60837,-3.4021 4.1173,8.45914 -17.14285,-5.71429 -2.24133,-1.49422 -3.15878,-4.86245 -5.71429,-5.71429 -3.61403,-1.20467 -7.65733,0.53875 -11.42857,0 -2.98142,-0.42591 -5.60071,-2.36202 -8.57143,-2.85714 -2.81827,-0.46971 -5.71428,0 -8.57143,0 -2.85714,0 -5.71428,0 -8.57143,0 -0.95238,0 -1.90476,0 -2.85714,0 -0.95238,0 -2.00531,-0.42592 -2.85714,0 -1.20468,0.60234 -2.25481,1.65247 -2.85714,2.85714 -0.85184,1.70368 0.85183,4.01062 0,5.71429 -0.60234,1.20468 -2.25481,1.65247 -2.85715,2.85714 -0.42591,0.85184 0.67344,2.18371 0,2.85715 -0.67343,0.67343 -1.90476,0 -2.85714,0 -1.90476,0 -3.8664,0.46197 -5.71429,0 -18.65313,-4.66329 10.79479,-1.53421 -14.28571,-5.71429 -2.81827,-0.46971 -5.71429,0 -8.57143,0 -12.38095,0 -24.7619,0 -37.14286,0 -1.90476,0 -3.80952,0 -5.71428,0 -0.95238,0 -2.18371,-0.67344 -2.85714,0 -0.67344,0.67344 0.67343,2.18371 0,2.85714 -0.67344,0.67344 -1.90477,0 -2.85715,0 0,1.90476 0.85184,4.01062 0,5.71429 -0.42591,0.85183 -2.43122,-0.85184 -2.85714,0 -0.0466,0.0932 -0.0466,17.0496 0,17.14286 0.85184,1.70367 4.01061,-0.85184 5.71429,0 1.20467,0.60233 1.65246,2.2548 2.85714,2.85714 0.85183,0.42592 2.00531,-0.42592 2.85714,0 1.20468,0.60234 1.65247,2.2548 2.85714,2.85714 1.70368,0.85184 4.36742,-1.34687 5.71429,0 0.67344,0.67344 -0.85184,2.43123 0,2.85714 1.70367,0.85184 4.12943,-1.05657 5.71429,0 1.77192,1.18129 1.35129,4.20844 2.85714,5.71429 0.67343,0.67344 2.00531,-0.42592 2.85714,0 1.20468,0.60234 1.65247,2.2548 2.85714,2.85714 0.85184,0.42592 2.00531,-0.42591 2.85715,0 4.96701,2.48351 9.52381,5.71429 14.28571,8.57143 z"
       id="path3018"
       inkscape:connector-curvature="0"
       inkscape:export-filename="/Users/markku/Data/repository/ludumdare/nightbyday/resources/public/img/clouds.png"
       inkscape:export-xdpi="90"
       inkscape:export-ydpi="90" />
  </g>
</svg>
