<?xml version="1.0" encoding="UTF-8" standalone="no"?>
<!-- Created with Inkscape (http://www.inkscape.org/) -->

<svg
   xmlns:dc="http://purl.org/dc/elements/1.1/"
   xmlns:cc="http://creativecommons.org/ns#"
   xmlns:rdf="http://www.w3.org/1999/02/22-rdf-syntax-ns#"
   xmlns:svg="http://www.w3.org/2000/svg"
   xmlns="http://www.w3.org/2000/svg"
   xmlns:sodipodi="http://sodipodi.sourceforge.net/DTD/sodipodi-0.dtd"
   xmlns:inkscape="http://www.inkscape.org/namespaces/inkscape"
   width="7086.6138"
   height="3543.3069"
   id="svg3864"
   version="1.1"
   inkscape:version="0.48.2 r9819"
   sodipodi:docname="objects.svg">
  <defs
     id="defs3866" />
  <sodipodi:namedview
     inkscape:document-units="mm"
     pagecolor="#ffffff"
     bordercolor="#666666"
     borderopacity="1.0"
     inkscape:pageopacity="0.0"
     inkscape:pageshadow="2"
     inkscape:zoom="0.61399264"
     inkscape:cx="1478.34"
     inkscape:cy="2970.087"
     inkscape:current-layer="layer1"
     id="namedview3868"
     showgrid="false"
     units="mm"
     inkscape:window-width="1920"
     inkscape:window-height="1032"
     inkscape:window-x="0"
     inkscape:window-y="0"
     inkscape:window-maximized="1" />
  <metadata
     id="metadata3870">
    <rdf:RDF>
      <cc:Work
         rdf:about="">
        <dc:format>image/svg+xml</dc:format>
        <dc:type
           rdf:resource="http://purl.org/dc/dcmitype/StillImage" />
        <dc:title />
      </cc:Work>
    </rdf:RDF>
  </metadata>
  <g
     inkscape:label="Layer 1"
     inkscape:groupmode="layer"
     id="layer1"
     transform="translate(0,2799.2125)">
    <path
       transform="translate(0,-2799.2125)"
       style="fill:#b2d17a;fill-opacity:1;stroke:none"
       d="m -18.426456,1838.8597 c 0,0 772.448126,-108.1333 1188.506456,-110.5587 416.0583,-2.4255 842.8882,100.0259 1298.473,105.534 455.5847,5.5081 1026.0303,-99.4165 1428.6363,-81.4032 402.6061,18.0132 579.578,130.4309 976.5484,143.9388 396.9703,13.5079 1017.7147,-105.9777 1391.8224,-109.2215 374.1077,-3.2438 847.052,51.7106 847.052,51.7106 l 0,1722.8737 -7131.038556,0 z"
       id="rect3894"
       inkscape:connector-curvature="0"
       sodipodi:nodetypes="czzzzzcccc"
       inkscape:export-filename="/Users/markku/Data/repository/ludumdare/nightbyday/resources/public/img/ground.png"
       inkscape:export-xdpi="25.24"
       inkscape:export-ydpi="25.24" />
    <path
       style="fill:#3e4837;fill-opacity:1;stroke:none"
       d="m 596.95994,-2221.2883 50.4892,-19.5443 -52.11789,110.7506 47.23184,-6.5148 -66.77605,122.1513 50.48921,-13.0294 -60.26131,135.1807 68.40473,-16.2868 -35.83105,79.8055 58.63263,-58.6326 27.68762,70.0334 13.02947,-66.7761 52.1179,45.6032 -26.05895,-68.4047 66.77604,29.3163 -58.63262,-112.3792 45.60315,8.1434 -70.03341,-138.4381 52.11789,13.0294 -58.63263,-130.2947 42.34579,17.9155 -74.91947,-156.3536 z"
       id="tree1"
       inkscape:connector-curvature="0"
       sodipodi:nodetypes="ccccccccccccccccccccccc"
       inkscape:label="tree"
       inkscape:export-filename="/Users/markku/Data/repository/ludumdare/nightbyday/resources/public/img/tree.png"
       inkscape:export-xdpi="90"
       inkscape:export-ydpi="90" />
    <path
       inkscape:export-ydpi="90"
       inkscape:export-xdpi="90"
       inkscape:export-filename="/Users/markku/Data/repository/ludumdare/nightbyday/resources/public/img/tree.png"
       inkscape:label="tree"
       sodipodi:nodetypes="ccccccccccccccccccccc"
       inkscape:connector-curvature="0"
       id="tree2"
       d="m 848.91837,-2259.0275 35.831,-8.1435 -52.1179,141.6956 58.6326,-37.4598 -76.5481,159.611 66.776,-45.603 -60.2613,130.2946 57.0039,-24.4302 -21.1728,87.9489 60.26128,-60.2614 70.03342,50.4893 -39.0885,-92.835 68.40483,48.8605 -74.91953,-146.5815 73.29083,47.2318 -70.03343,-138.4381 52.1179,13.0294 -58.6327,-130.2947 34.2024,-1.6287 -66.776,-154.7249 z"
       style="fill:#484e31;fill-opacity:1;stroke:none" />
    <path
       style="fill:#353929;fill-opacity:1;stroke:none"
       d="m 1164.883,-1809.5108 26.0589,-84.6916 53.7466,58.6327 -39.0885,-92.835 86.3204,34.2023 -76.5482,-143.324 87.949,68.4046 -94.4638,-180.7839 63.5187,30.9449 -73.2908,-164.497 34.2024,-1.6287 -60.2613,-159.611 -73.2907,166.1258 35.831,-8.1435 -58.6327,162.8685 55.3752,-34.2025 -89.5775,182.4127 71.6621,-50.4891 -53.7466,127.0372 68.4047,-26.0589 -24.4302,99.3497 52.1179,-65.1474"
       id="tree3"
       inkscape:connector-curvature="0"
       sodipodi:nodetypes="cccccccccccccccccccccc"
       inkscape:label="tree"
       inkscape:export-filename="/Users/markku/Data/repository/ludumdare/nightbyday/resources/public/img/tree.png"
       inkscape:export-xdpi="90"
       inkscape:export-ydpi="90" />
  </g>
</svg>
